{
	"asset":{
		"generator":"Khronos glTF Blender I/O v3.6.27",
		"version":"2.0"
	},
	"scene":0,
	"scenes":[
		{
			"name":"Scene",
			"nodes":[
				0,
				1,
				9
			]
		}
	],
	"nodes":[
		{
			"mesh":0,
			"name":"Platform"
		},
		{
			"mesh":1,
			"name":"Wheel Axle Retaining Plate"
		},
		{
			"mesh":2,
			"name":"Following Wheels"
		},
		{
			"children":[
				2
			],
			"mesh":3,
			"name":"Following Wheel Axle",
			"rotation":[
				-1.545430627913902e-08,
				1.545430450278218e-08,
				0.7071065902709961,
				0.7071069478988647
			],
			"scale":[
				1.0000001192092896,
				1,
				1
			],
			"translation":[
				0.001546469866298139,
				1.0746448040008545,
				-0.0027313309255987406
			]
		},
		{
			"children":[
				3
			],
			"name":"Bone.001",
			"rotation":[
				2.683354125565529e-07,
				2.683354125565529e-07,
				-0.7071067690849304,
				0.7071067690849304
			],
			"scale":[
				1,
				0.9999999403953552,
				1
			],
			"translation":[
				-1.0746445655822754,
				-0.14524561166763306,
				-0.6222979426383972
			]
		},
		{
			"mesh":4,
			"name":"Main Wheels"
		},
		{
			"children":[
				5
			],
			"mesh":5,
			"name":"Main Wheel Axle",
			"rotation":[
				-1.8404170987196267e-07,
				-1.8404170987196267e-07,
				0.7071067690849304,
				0.7071067690849304
			],
			"scale":[
				1.000000238418579,
				1,
				1
			],
			"translation":[
				0.002217175904661417,
				1.0746448040008545,
				0.00020392464648466557
			]
		},
		{
			"children":[
				6
			],
			"name":"Main Wheels Axle",
			"rotation":[
				3.5262911524114315e-07,
				1.5454311608209537e-08,
				-0.7071067690849304,
				0.7071067690849304
			],
			"translation":[
				-2.1492888927459717,
				0,
				-1.0488722637091996e-06
			]
		},
		{
			"children":[
				7
			],
			"name":"WheelsIK",
			"rotation":[
				0,
				2.384185791015625e-07,
				0,
				1
			],
			"translation":[
				1.0746443271636963,
				-0.14524561166763306,
				0.6252483129501343
			]
		},
		{
			"children":[
				4,
				8
			],
			"name":"Wheels Armature"
		}
	],
	"animations":[
		{
			"channels":[
				{
					"sampler":0,
					"target":{
						"node":4,
						"path":"translation"
					}
				},
				{
					"sampler":1,
					"target":{
						"node":4,
						"path":"rotation"
					}
				},
				{
					"sampler":2,
					"target":{
						"node":4,
						"path":"scale"
					}
				},
				{
					"sampler":3,
					"target":{
						"node":8,
						"path":"translation"
					}
				},
				{
					"sampler":4,
					"target":{
						"node":8,
						"path":"rotation"
					}
				},
				{
					"sampler":5,
					"target":{
						"node":8,
						"path":"scale"
					}
				},
				{
					"sampler":6,
					"target":{
						"node":7,
						"path":"translation"
					}
				},
				{
					"sampler":7,
					"target":{
						"node":7,
						"path":"rotation"
					}
				},
				{
					"sampler":8,
					"target":{
						"node":7,
						"path":"scale"
					}
				}
			],
			"name":"Caution Bobbing",
			"samplers":[
				{
					"input":24,
					"interpolation":"STEP",
					"output":25
				},
				{
					"input":24,
					"interpolation":"STEP",
					"output":26
				},
				{
					"input":24,
					"interpolation":"STEP",
					"output":27
				},
				{
					"input":24,
					"interpolation":"STEP",
					"output":28
				},
				{
					"input":24,
					"interpolation":"STEP",
					"output":29
				},
				{
					"input":24,
					"interpolation":"STEP",
					"output":30
				},
				{
					"input":24,
					"interpolation":"STEP",
					"output":31
				},
				{
					"input":24,
					"interpolation":"STEP",
					"output":32
				},
				{
					"input":24,
					"interpolation":"STEP",
					"output":33
				}
			]
		},
		{
			"channels":[
				{
					"sampler":0,
					"target":{
						"node":4,
						"path":"translation"
					}
				},
				{
					"sampler":1,
					"target":{
						"node":4,
						"path":"rotation"
					}
				},
				{
					"sampler":2,
					"target":{
						"node":4,
						"path":"scale"
					}
				},
				{
					"sampler":3,
					"target":{
						"node":8,
						"path":"translation"
					}
				},
				{
					"sampler":4,
					"target":{
						"node":8,
						"path":"rotation"
					}
				},
				{
					"sampler":5,
					"target":{
						"node":8,
						"path":"scale"
					}
				},
				{
					"sampler":6,
					"target":{
						"node":7,
						"path":"translation"
					}
				},
				{
					"sampler":7,
					"target":{
						"node":7,
						"path":"rotation"
					}
				},
				{
					"sampler":8,
					"target":{
						"node":7,
						"path":"scale"
					}
				}
			],
			"name":"Handlebars Up Down",
			"samplers":[
				{
					"input":24,
					"interpolation":"STEP",
					"output":34
				},
				{
					"input":24,
					"interpolation":"STEP",
					"output":35
				},
				{
					"input":24,
					"interpolation":"STEP",
					"output":36
				},
				{
					"input":24,
					"interpolation":"STEP",
					"output":37
				},
				{
					"input":24,
					"interpolation":"STEP",
					"output":38
				},
				{
					"input":24,
					"interpolation":"STEP",
					"output":39
				},
				{
					"input":24,
					"interpolation":"STEP",
					"output":40
				},
				{
					"input":24,
					"interpolation":"STEP",
					"output":41
				},
				{
					"input":24,
					"interpolation":"STEP",
					"output":42
				}
			]
		},
		{
			"channels":[
				{
					"sampler":0,
					"target":{
						"node":4,
						"path":"translation"
					}
				},
				{
					"sampler":1,
					"target":{
						"node":4,
						"path":"rotation"
					}
				},
				{
					"sampler":2,
					"target":{
						"node":4,
						"path":"scale"
					}
				},
				{
					"sampler":3,
					"target":{
						"node":8,
						"path":"translation"
					}
				},
				{
					"sampler":4,
					"target":{
						"node":8,
						"path":"rotation"
					}
				},
				{
					"sampler":5,
					"target":{
						"node":8,
						"path":"scale"
					}
				},
				{
					"sampler":6,
					"target":{
						"node":7,
						"path":"translation"
					}
				},
				{
					"sampler":7,
					"target":{
						"node":7,
						"path":"rotation"
					}
				},
				{
					"sampler":8,
					"target":{
						"node":7,
						"path":"scale"
					}
				}
			],
			"name":"Wheels Turning",
			"samplers":[
				{
					"input":24,
					"interpolation":"STEP",
					"output":43
				},
				{
					"input":44,
					"interpolation":"LINEAR",
					"output":45
				},
				{
					"input":24,
					"interpolation":"STEP",
					"output":46
				},
				{
					"input":24,
					"interpolation":"STEP",
					"output":47
				},
				{
					"input":44,
					"interpolation":"LINEAR",
					"output":48
				},
				{
					"input":24,
					"interpolation":"STEP",
					"output":49
				},
				{
					"input":24,
					"interpolation":"STEP",
					"output":50
				},
				{
					"input":24,
					"interpolation":"STEP",
					"output":51
				},
				{
					"input":24,
					"interpolation":"STEP",
					"output":52
				}
			]
		},
		{
			"channels":[
				{
					"sampler":0,
					"target":{
						"node":4,
						"path":"translation"
					}
				},
				{
					"sampler":1,
					"target":{
						"node":4,
						"path":"rotation"
					}
				},
				{
					"sampler":2,
					"target":{
						"node":4,
						"path":"scale"
					}
				},
				{
					"sampler":3,
					"target":{
						"node":8,
						"path":"translation"
					}
				},
				{
					"sampler":4,
					"target":{
						"node":8,
						"path":"rotation"
					}
				},
				{
					"sampler":5,
					"target":{
						"node":8,
						"path":"scale"
					}
				},
				{
					"sampler":6,
					"target":{
						"node":7,
						"path":"translation"
					}
				},
				{
					"sampler":7,
					"target":{
						"node":7,
						"path":"rotation"
					}
				},
				{
					"sampler":8,
					"target":{
						"node":7,
						"path":"scale"
					}
				}
			],
			"name":"X Bobbing",
			"samplers":[
				{
					"input":24,
					"interpolation":"STEP",
					"output":53
				},
				{
					"input":24,
					"interpolation":"STEP",
					"output":54
				},
				{
					"input":24,
					"interpolation":"STEP",
					"output":55
				},
				{
					"input":24,
					"interpolation":"STEP",
					"output":56
				},
				{
					"input":24,
					"interpolation":"STEP",
					"output":57
				},
				{
					"input":24,
					"interpolation":"STEP",
					"output":58
				},
				{
					"input":24,
					"interpolation":"STEP",
					"output":59
				},
				{
					"input":24,
					"interpolation":"STEP",
					"output":60
				},
				{
					"input":24,
					"interpolation":"STEP",
					"output":61
				}
			]
		}
	],
	"materials":[
		{
			"doubleSided":true,
			"name":"Platform",
			"pbrMetallicRoughness":{
				"baseColorFactor":[
					0.800000011920929,
					0.800000011920929,
					0.800000011920929,
					1
				],
				"metallicFactor":0,
				"roughnessFactor":0.5
			}
		},
		{
			"doubleSided":true,
			"name":"Wheel Axle Retaining Plate",
			"pbrMetallicRoughness":{
				"baseColorFactor":[
					0.800000011920929,
					0.800000011920929,
					0.800000011920929,
					1
				],
				"metallicFactor":0,
				"roughnessFactor":0.5
			}
		},
		{
			"doubleSided":true,
			"name":"Wheels",
			"pbrMetallicRoughness":{
				"baseColorFactor":[
					0.800000011920929,
					0.800000011920929,
					0.800000011920929,
					1
				],
				"metallicFactor":0,
				"roughnessFactor":0.5
			}
		},
		{
			"doubleSided":true,
			"name":"Axles",
			"pbrMetallicRoughness":{
				"baseColorFactor":[
					0.800000011920929,
					0.800000011920929,
					0.800000011920929,
					1
				],
				"metallicFactor":0,
				"roughnessFactor":0.5
			}
		}
	],
	"meshes":[
		{
			"name":"Cube",
			"primitives":[
				{
					"attributes":{
						"POSITION":0,
						"NORMAL":1,
						"TEXCOORD_0":2
					},
					"indices":3,
					"material":0
				}
			]
		},
		{
			"name":"Cube.003",
			"primitives":[
				{
					"attributes":{
						"POSITION":4,
						"NORMAL":5,
						"TEXCOORD_0":6
					},
					"indices":7,
					"material":1
				}
			]
		},
		{
			"name":"Cylinder.005",
			"primitives":[
				{
					"attributes":{
						"POSITION":8,
						"NORMAL":9,
						"TEXCOORD_0":10
					},
					"indices":11,
					"material":2
				}
			]
		},
		{
			"name":"Cylinder.008",
			"primitives":[
				{
					"attributes":{
						"POSITION":12,
						"NORMAL":13,
						"TEXCOORD_0":14
					},
					"indices":15,
					"material":3
				}
			]
		},
		{
			"name":"Cylinder",
			"primitives":[
				{
					"attributes":{
						"POSITION":16,
						"NORMAL":17,
						"TEXCOORD_0":18
					},
					"indices":19,
					"material":2
				}
			]
		},
		{
			"name":"Cylinder.001",
			"primitives":[
				{
					"attributes":{
						"POSITION":20,
						"NORMAL":21,
						"TEXCOORD_0":22
					},
					"indices":23,
					"material":3
				}
			]
		}
	],
	"skins":[
		{
			"inverseBindMatrices":62,
			"joints":[
				4,
				8,
				7
			],
			"name":"Wheels Armature"
		}
	],
	"accessors":[
		{
			"bufferView":0,
			"componentType":5126,
			"count":24,
			"max":[
				0.8585041761398315,
				0.07342815399169922,
				1.2185662984848022
			],
			"min":[
				-0.8585041761398315,
				-0.07342815399169922,
				-1.2185662984848022
			],
			"type":"VEC3"
		},
		{
			"bufferView":1,
			"componentType":5126,
			"count":24,
			"type":"VEC3"
		},
		{
			"bufferView":2,
			"componentType":5126,
			"count":24,
			"type":"VEC2"
		},
		{
			"bufferView":3,
			"componentType":5123,
			"count":36,
			"type":"SCALAR"
		},
		{
			"bufferView":4,
			"componentType":5126,
			"count":48,
			"max":[
				0.404730886220932,
				-0.06466759741306305,
				0.7820823788642883
			],
			"min":[
				-0.404730886220932,
				-0.25815096497535706,
				-0.7820823788642883
			],
			"type":"VEC3"
		},
		{
			"bufferView":5,
			"componentType":5126,
			"count":48,
			"type":"VEC3"
		},
		{
			"bufferView":6,
			"componentType":5126,
			"count":48,
			"type":"VEC2"
		},
		{
			"bufferView":7,
			"componentType":5123,
			"count":72,
			"type":"SCALAR"
		},
		{
			"bufferView":8,
			"componentType":5126,
			"count":824,
			"max":[
				1.0096944570541382,
				0.40275976061820984,
				0.4016125202178955
			],
			"min":[
				-1.0096946954727173,
				-0.40474674105644226,
				-0.40589380264282227
			],
			"type":"VEC3"
		},
		{
			"bufferView":9,
			"componentType":5126,
			"count":824,
			"type":"VEC3"
		},
		{
			"bufferView":10,
			"componentType":5126,
			"count":824,
			"type":"VEC2"
		},
		{
			"bufferView":11,
			"componentType":5123,
			"count":1956,
			"type":"SCALAR"
		},
		{
			"bufferView":12,
			"componentType":5126,
			"count":48,
			"max":[
				1.0596200227737427,
				0.05903717875480652,
				0.05966860055923462
			],
			"min":[
				-1.0596202611923218,
				-0.05736669898033142,
				-0.056735098361968994
			],
			"type":"VEC3"
		},
		{
			"bufferView":13,
			"componentType":5126,
			"count":48,
			"type":"VEC3"
		},
		{
			"bufferView":14,
			"componentType":5126,
			"count":48,
			"type":"VEC2"
		},
		{
			"bufferView":15,
			"componentType":5123,
			"count":84,
			"type":"SCALAR"
		},
		{
			"bufferView":16,
			"componentType":5126,
			"count":824,
			"max":[
				1.0096945762634277,
				0.4034310579299927,
				0.40547069907188416
			],
			"min":[
				-1.0096945762634277,
				-0.4040754437446594,
				-0.4020356237888336
			],
			"type":"VEC3"
		},
		{
			"bufferView":17,
			"componentType":5126,
			"count":824,
			"type":"VEC3"
		},
		{
			"bufferView":18,
			"componentType":5126,
			"count":824,
			"type":"VEC2"
		},
		{
			"bufferView":19,
			"componentType":5123,
			"count":1956,
			"type":"SCALAR"
		},
		{
			"bufferView":20,
			"componentType":5126,
			"count":48,
			"max":[
				1.0596201419830322,
				0.05921226739883423,
				0.05631202459335327
			],
			"min":[
				-1.0596201419830322,
				-0.05719161033630371,
				-0.06009167432785034
			],
			"type":"VEC3"
		},
		{
			"bufferView":21,
			"componentType":5126,
			"count":48,
			"type":"VEC3"
		},
		{
			"bufferView":22,
			"componentType":5126,
			"count":48,
			"type":"VEC2"
		},
		{
			"bufferView":23,
			"componentType":5123,
			"count":84,
			"type":"SCALAR"
		},
		{
			"bufferView":24,
			"componentType":5126,
			"count":2,
			"max":[
				4.958333333333333
			],
			"min":[
				0
			],
			"type":"SCALAR"
		},
		{
			"bufferView":25,
			"componentType":5126,
			"count":2,
			"type":"VEC3"
		},
		{
			"bufferView":26,
			"componentType":5126,
			"count":2,
			"type":"VEC4"
		},
		{
			"bufferView":27,
			"componentType":5126,
			"count":2,
			"type":"VEC3"
		},
		{
			"bufferView":28,
			"componentType":5126,
			"count":2,
			"type":"VEC3"
		},
		{
			"bufferView":29,
			"componentType":5126,
			"count":2,
			"type":"VEC4"
		},
		{
			"bufferView":30,
			"componentType":5126,
			"count":2,
			"type":"VEC3"
		},
		{
			"bufferView":31,
			"componentType":5126,
			"count":2,
			"type":"VEC3"
		},
		{
			"bufferView":32,
			"componentType":5126,
			"count":2,
			"type":"VEC4"
		},
		{
			"bufferView":33,
			"componentType":5126,
			"count":2,
			"type":"VEC3"
		},
		{
			"bufferView":34,
			"componentType":5126,
			"count":2,
			"type":"VEC3"
		},
		{
			"bufferView":35,
			"componentType":5126,
			"count":2,
			"type":"VEC4"
		},
		{
			"bufferView":36,
			"componentType":5126,
			"count":2,
			"type":"VEC3"
		},
		{
			"bufferView":37,
			"componentType":5126,
			"count":2,
			"type":"VEC3"
		},
		{
			"bufferView":38,
			"componentType":5126,
			"count":2,
			"type":"VEC4"
		},
		{
			"bufferView":39,
			"componentType":5126,
			"count":2,
			"type":"VEC3"
		},
		{
			"bufferView":40,
			"componentType":5126,
			"count":2,
			"type":"VEC3"
		},
		{
			"bufferView":41,
			"componentType":5126,
			"count":2,
			"type":"VEC4"
		},
		{
			"bufferView":42,
			"componentType":5126,
			"count":2,
			"type":"VEC3"
		},
		{
			"bufferView":43,
			"componentType":5126,
			"count":2,
			"type":"VEC3"
		},
		{
			"bufferView":44,
			"componentType":5126,
			"count":120,
			"max":[
				4.958333333333333
			],
			"min":[
				0
			],
			"type":"SCALAR"
		},
		{
			"bufferView":45,
			"componentType":5126,
			"count":120,
			"type":"VEC4"
		},
		{
			"bufferView":46,
			"componentType":5126,
			"count":2,
			"type":"VEC3"
		},
		{
			"bufferView":47,
			"componentType":5126,
			"count":2,
			"type":"VEC3"
		},
		{
			"bufferView":48,
			"componentType":5126,
			"count":120,
			"type":"VEC4"
		},
		{
			"bufferView":49,
			"componentType":5126,
			"count":2,
			"type":"VEC3"
		},
		{
			"bufferView":50,
			"componentType":5126,
			"count":2,
			"type":"VEC3"
		},
		{
			"bufferView":51,
			"componentType":5126,
			"count":2,
			"type":"VEC4"
		},
		{
			"bufferView":52,
			"componentType":5126,
			"count":2,
			"type":"VEC3"
		},
		{
			"bufferView":53,
			"componentType":5126,
			"count":2,
			"type":"VEC3"
		},
		{
			"bufferView":54,
			"componentType":5126,
			"count":2,
			"type":"VEC4"
		},
		{
			"bufferView":55,
			"componentType":5126,
			"count":2,
			"type":"VEC3"
		},
		{
			"bufferView":56,
			"componentType":5126,
			"count":2,
			"type":"VEC3"
		},
		{
			"bufferView":57,
			"componentType":5126,
			"count":2,
			"type":"VEC4"
		},
		{
			"bufferView":58,
			"componentType":5126,
			"count":2,
			"type":"VEC3"
		},
		{
			"bufferView":59,
			"componentType":5126,
			"count":2,
			"type":"VEC3"
		},
		{
			"bufferView":60,
			"componentType":5126,
			"count":2,
			"type":"VEC4"
		},
		{
			"bufferView":61,
			"componentType":5126,
			"count":2,
			"type":"VEC3"
		},
		{
			"bufferView":62,
			"componentType":5126,
			"count":3,
			"type":"MAT4"
		}
	],
	"bufferViews":[
		{
			"buffer":0,
			"byteLength":288,
			"byteOffset":0,
			"target":34962
		},
		{
			"buffer":0,
			"byteLength":288,
			"byteOffset":288,
			"target":34962
		},
		{
			"buffer":0,
			"byteLength":192,
			"byteOffset":576,
			"target":34962
		},
		{
			"buffer":0,
			"byteLength":72,
			"byteOffset":768,
			"target":34963
		},
		{
			"buffer":0,
			"byteLength":576,
			"byteOffset":840,
			"target":34962
		},
		{
			"buffer":0,
			"byteLength":576,
			"byteOffset":1416,
			"target":34962
		},
		{
			"buffer":0,
			"byteLength":384,
			"byteOffset":1992,
			"target":34962
		},
		{
			"buffer":0,
			"byteLength":144,
			"byteOffset":2376,
			"target":34963
		},
		{
			"buffer":0,
			"byteLength":9888,
			"byteOffset":2520,
			"target":34962
		},
		{
			"buffer":0,
			"byteLength":9888,
			"byteOffset":12408,
			"target":34962
		},
		{
			"buffer":0,
			"byteLength":6592,
			"byteOffset":22296,
			"target":34962
		},
		{
			"buffer":0,
			"byteLength":3912,
			"byteOffset":28888,
			"target":34963
		},
		{
			"buffer":0,
			"byteLength":576,
			"byteOffset":32800,
			"target":34962
		},
		{
			"buffer":0,
			"byteLength":576,
			"byteOffset":33376,
			"target":34962
		},
		{
			"buffer":0,
			"byteLength":384,
			"byteOffset":33952,
			"target":34962
		},
		{
			"buffer":0,
			"byteLength":168,
			"byteOffset":34336,
			"target":34963
		},
		{
			"buffer":0,
			"byteLength":9888,
			"byteOffset":34504,
			"target":34962
		},
		{
			"buffer":0,
			"byteLength":9888,
			"byteOffset":44392,
			"target":34962
		},
		{
			"buffer":0,
			"byteLength":6592,
			"byteOffset":54280,
			"target":34962
		},
		{
			"buffer":0,
			"byteLength":3912,
			"byteOffset":60872,
			"target":34963
		},
		{
			"buffer":0,
			"byteLength":576,
			"byteOffset":64784,
			"target":34962
		},
		{
			"buffer":0,
			"byteLength":576,
			"byteOffset":65360,
			"target":34962
		},
		{
			"buffer":0,
			"byteLength":384,
			"byteOffset":65936,
			"target":34962
		},
		{
			"buffer":0,
			"byteLength":168,
			"byteOffset":66320,
			"target":34963
		},
		{
			"buffer":0,
			"byteLength":8,
			"byteOffset":66488
		},
		{
			"buffer":0,
			"byteLength":24,
			"byteOffset":66496
		},
		{
			"buffer":0,
			"byteLength":32,
			"byteOffset":66520
		},
		{
			"buffer":0,
			"byteLength":24,
			"byteOffset":66552
		},
		{
			"buffer":0,
			"byteLength":24,
			"byteOffset":66576
		},
		{
			"buffer":0,
			"byteLength":32,
			"byteOffset":66600
		},
		{
			"buffer":0,
			"byteLength":24,
			"byteOffset":66632
		},
		{
			"buffer":0,
			"byteLength":24,
			"byteOffset":66656
		},
		{
			"buffer":0,
			"byteLength":32,
			"byteOffset":66680
		},
		{
			"buffer":0,
			"byteLength":24,
			"byteOffset":66712
		},
		{
			"buffer":0,
			"byteLength":24,
			"byteOffset":66736
		},
		{
			"buffer":0,
			"byteLength":32,
			"byteOffset":66760
		},
		{
			"buffer":0,
			"byteLength":24,
			"byteOffset":66792
		},
		{
			"buffer":0,
			"byteLength":24,
			"byteOffset":66816
		},
		{
			"buffer":0,
			"byteLength":32,
			"byteOffset":66840
		},
		{
			"buffer":0,
			"byteLength":24,
			"byteOffset":66872
		},
		{
			"buffer":0,
			"byteLength":24,
			"byteOffset":66896
		},
		{
			"buffer":0,
			"byteLength":32,
			"byteOffset":66920
		},
		{
			"buffer":0,
			"byteLength":24,
			"byteOffset":66952
		},
		{
			"buffer":0,
			"byteLength":24,
			"byteOffset":66976
		},
		{
			"buffer":0,
			"byteLength":480,
			"byteOffset":67000
		},
		{
			"buffer":0,
			"byteLength":1920,
			"byteOffset":67480
		},
		{
			"buffer":0,
			"byteLength":24,
			"byteOffset":69400
		},
		{
			"buffer":0,
			"byteLength":24,
			"byteOffset":69424
		},
		{
			"buffer":0,
			"byteLength":1920,
			"byteOffset":69448
		},
		{
			"buffer":0,
			"byteLength":24,
			"byteOffset":71368
		},
		{
			"buffer":0,
			"byteLength":24,
			"byteOffset":71392
		},
		{
			"buffer":0,
			"byteLength":32,
			"byteOffset":71416
		},
		{
			"buffer":0,
			"byteLength":24,
			"byteOffset":71448
		},
		{
			"buffer":0,
			"byteLength":24,
			"byteOffset":71472
		},
		{
			"buffer":0,
			"byteLength":32,
			"byteOffset":71496
		},
		{
			"buffer":0,
			"byteLength":24,
			"byteOffset":71528
		},
		{
			"buffer":0,
			"byteLength":24,
			"byteOffset":71552
		},
		{
			"buffer":0,
			"byteLength":32,
			"byteOffset":71576
		},
		{
			"buffer":0,
			"byteLength":24,
			"byteOffset":71608
		},
		{
			"buffer":0,
			"byteLength":24,
			"byteOffset":71632
		},
		{
			"buffer":0,
			"byteLength":32,
			"byteOffset":71656
		},
		{
			"buffer":0,
			"byteLength":24,
			"byteOffset":71688
		},
		{
			"buffer":0,
			"byteLength":192,
			"byteOffset":71712
		}
	],
	"buffers":[
		{
			"byteLength":71904,
			"uri":"data:application/octet-stream;base64,"
		}
	]
}
