{
	"asset":{
		"generator":"Khronos glTF Blender I/O v3.6.27",
		"version":"2.0"
	},
	"scene":0,
	"scenes":[
		{
			"name":"Scene",
			"nodes":[
				0,
				1,
				2,
				3,
				4
			]
		}
	],
	"nodes":[
		{
			"mesh":0,
			"name":"404",
			"rotation":[
				-0.7070680856704712,
				0.007402600254863501,
				0.007402600254863501,
				0.7070680856704712
			],
			"translation":[
				0.21861444413661957,
				0.9001381397247314,
				0.24820494651794434
			]
		},
		{
			"mesh":1,
			"name":"Not Found Curve",
			"rotation":[
				0.22216570377349854,
				-0.6712989807128906,
				-0.6712992191314697,
				0.22216565907001495
			],
			"scale":[
				0.9415680766105652,
				0.9415680766105652,
				0.9415680766105652
			],
			"translation":[
				0.21861445903778076,
				0.9001380205154419,
				0.24820482730865479
			]
		},
		{
			"mesh":2,
			"name":"Error Curve",
			"rotation":[
				0.6690240502357483,
				-0.22892507910728455,
				-0.22892530262470245,
				0.6690242290496826
			],
			"scale":[
				0.94156813621521,
				0.9415680766105652,
				0.94156813621521
			],
			"translation":[
				0.21861445903778076,
				0.9001380205154419,
				0.24820482730865479
			]
		},
		{
			"mesh":3,
			"name":"Deformed Plane",
			"rotation":[
				0.7071068286895752,
				0,
				0,
				0.7071068286895752
			],
			"translation":[
				0.21861445903778076,
				0.9001380205154419,
				0.24820482730865479
			]
		},
		{
			"mesh":4,
			"name":"Globe",
			"rotation":[
				0,
				-1,
				0,
				1.6292068494294654e-07
			],
			"scale":[
				0.6743642687797546,
				0.6743642687797546,
				0.6743642687797546
			],
			"translation":[
				0.21861445903778076,
				0.9001380205154419,
				0.24820482730865479
			]
		}
	],
	"materials":[
		{
			"doubleSided":true,
			"name":"Letters",
			"pbrMetallicRoughness":{
				"baseColorFactor":[
					0.800000011920929,
					0.800000011920929,
					0.800000011920929,
					1
				],
				"metallicFactor":0,
				"roughnessFactor":0.5
			}
		},
		{
			"doubleSided":true,
			"name":"Crumpled Paper",
			"pbrMetallicRoughness":{
				"baseColorFactor":[
					0.800000011920929,
					0.800000011920929,
					0.800000011920929,
					1
				],
				"metallicFactor":0,
				"roughnessFactor":0.5
			}
		},
		{
			"doubleSided":true,
			"name":"Globe",
			"pbrMetallicRoughness":{
				"baseColorFactor":[
					0.800000011920929,
					0.800000011920929,
					0.800000011920929,
					1
				],
				"metallicFactor":0,
				"roughnessFactor":0.5
			}
		}
	],
	"meshes":[
		{
			"name":"Text.001",
			"primitives":[
				{
					"attributes":{
						"POSITION":0,
						"NORMAL":1,
						"TEXCOORD_0":2
					},
					"indices":3,
					"material":0
				}
			]
		},
		{
			"name":"Mesh",
			"primitives":[
				{
					"attributes":{
						"POSITION":4
					},
					"indices":5,
					"mode":1
				}
			]
		},
		{
			"name":"Mesh",
			"primitives":[
				{
					"attributes":{
						"POSITION":6
					},
					"indices":5,
					"mode":1
				}
			]
		},
		{
			"name":"Plane",
			"primitives":[
				{
					"attributes":{
						"POSITION":7,
						"NORMAL":8,
						"TEXCOORD_0":9
					},
					"indices":10,
					"material":1
				}
			]
		},
		{
			"name":"Icosphere",
			"primitives":[
				{
					"attributes":{
						"POSITION":11,
						"NORMAL":12,
						"TEXCOORD_0":13
					},
					"indices":14,
					"material":2
				}
			]
		}
	],
	"accessors":[
		{
			"bufferView":0,
			"componentType":5126,
			"count":3712,
			"max":[
				0.44439777731895447,
				-0.586840033531189,
				0.2312464565038681
			],
			"min":[
				-0.5000306367874146,
				-0.7871628403663635,
				-0.2003656029701233
			],
			"type":"VEC3"
		},
		{
			"bufferView":1,
			"componentType":5126,
			"count":3712,
			"type":"VEC3"
		},
		{
			"bufferView":2,
			"componentType":5126,
			"count":3712,
			"type":"VEC2"
		},
		{
			"bufferView":3,
			"componentType":5123,
			"count":22272,
			"type":"SCALAR"
		},
		{
			"bufferView":4,
			"componentType":5126,
			"count":48,
			"max":[
				1,
				1,
				4.371138828673793e-08
			],
			"min":[
				-1,
				-1,
				-4.371138828673793e-08
			],
			"type":"VEC3"
		},
		{
			"bufferView":5,
			"componentType":5123,
			"count":96,
			"type":"SCALAR"
		},
		{
			"bufferView":6,
			"componentType":5126,
			"count":48,
			"max":[
				1,
				1,
				4.371138828673793e-08
			],
			"min":[
				-1,
				-1,
				-4.371138828673793e-08
			],
			"type":"VEC3"
		},
		{
			"bufferView":7,
			"componentType":5126,
			"count":15336,
			"max":[
				0.5599378347396851,
				0.7147408127784729,
				0.5704476237297058
			],
			"min":[
				-0.6045960783958435,
				0.3032298982143402,
				-0.5819436311721802
			],
			"type":"VEC3"
		},
		{
			"bufferView":8,
			"componentType":5126,
			"count":15336,
			"type":"VEC3"
		},
		{
			"bufferView":9,
			"componentType":5126,
			"count":15336,
			"type":"VEC2"
		},
		{
			"bufferView":10,
			"componentType":5123,
			"count":24576,
			"type":"SCALAR"
		},
		{
			"bufferView":11,
			"componentType":5126,
			"count":653,
			"max":[
				0.9978885054588318,
				0.9979299902915955,
				0.9922625422477722
			],
			"min":[
				-0.9952898621559143,
				-0.9985284209251404,
				-1.0006299018859863
			],
			"type":"VEC3"
		},
		{
			"bufferView":12,
			"componentType":5126,
			"count":653,
			"type":"VEC3"
		},
		{
			"bufferView":13,
			"componentType":5126,
			"count":653,
			"type":"VEC2"
		},
		{
			"bufferView":14,
			"componentType":5123,
			"count":3312,
			"type":"SCALAR"
		}
	],
	"bufferViews":[
		{
			"buffer":0,
			"byteLength":44544,
			"byteOffset":0,
			"target":34962
		},
		{
			"buffer":0,
			"byteLength":44544,
			"byteOffset":44544,
			"target":34962
		},
		{
			"buffer":0,
			"byteLength":29696,
			"byteOffset":89088,
			"target":34962
		},
		{
			"buffer":0,
			"byteLength":44544,
			"byteOffset":118784,
			"target":34963
		},
		{
			"buffer":0,
			"byteLength":576,
			"byteOffset":163328,
			"target":34962
		},
		{
			"buffer":0,
			"byteLength":192,
			"byteOffset":163904,
			"target":34963
		},
		{
			"buffer":0,
			"byteLength":576,
			"byteOffset":164096,
			"target":34962
		},
		{
			"buffer":0,
			"byteLength":184032,
			"byteOffset":164672,
			"target":34962
		},
		{
			"buffer":0,
			"byteLength":184032,
			"byteOffset":348704,
			"target":34962
		},
		{
			"buffer":0,
			"byteLength":122688,
			"byteOffset":532736,
			"target":34962
		},
		{
			"buffer":0,
			"byteLength":49152,
			"byteOffset":655424,
			"target":34963
		},
		{
			"buffer":0,
			"byteLength":7836,
			"byteOffset":704576,
			"target":34962
		},
		{
			"buffer":0,
			"byteLength":7836,
			"byteOffset":712412,
			"target":34962
		},
		{
			"buffer":0,
			"byteLength":5224,
			"byteOffset":720248,
			"target":34962
		},
		{
			"buffer":0,
			"byteLength":6624,
			"byteOffset":725472,
			"target":34963
		}
	],
	"buffers":[
		{
			"byteLength":732096,
			"uri":"data:application/octet-stream;base64,"
		}
	]
}
